<svg xmlns="http://www.w3.org/2000/svg" width="180.128" height="57.254" viewBox="0 0 180.128 57.254">
  <g id="Group_24" data-name="Group 24" transform="translate(-618.958 -626.208)">
    <g id="logo" transform="translate(618.958 652.851)">
      <g id="Group_22" data-name="Group 22" transform="translate(28.489)">
        <path id="Path_24" data-name="Path 24" d="M859.158,532.845a.893.893,0,0,0-1.094.634l-.021.078L855.976,533a11.72,11.72,0,0,0,0-4.277l2.067-.556.021.078a.894.894,0,1,0,1.726-.464l-.5-1.888a.894.894,0,1,0-1.726.464l.02.078-2.068.556a11.653,11.653,0,0,0-2.134-3.7l1.518-1.523.056.057a.9.9,0,0,0,1.263-1.268l-1.376-1.381a.9.9,0,0,0-1.264,1.268l.057.057-1.518,1.523a11.594,11.594,0,0,0-3.686-2.142l.554-2.076.077.021a.9.9,0,0,0,.463-1.732l-1.881-.506a.9.9,0,0,0-.463,1.732l.077.021-.554,2.075a11.587,11.587,0,0,0-4.261,0l-.554-2.075.077-.021a.9.9,0,0,0-.462-1.732l-1.881.506a.9.9,0,0,0,.463,1.732l.077-.021.554,2.076a11.584,11.584,0,0,0-3.686,2.142l-1.518-1.523.057-.057a.9.9,0,0,0-1.264-1.269l-1.376,1.382a.895.895,0,0,0,1.263,1.268l.057-.057,1.518,1.523a11.661,11.661,0,0,0-2.134,3.7l-2.068-.556.02-.078a.894.894,0,1,0-1.726-.464l-.5,1.888a.894.894,0,1,0,1.726.464l.021-.078,2.067.556a11.71,11.71,0,0,0,0,4.277l-2.068.556-.02-.078a.894.894,0,1,0-1.726.464l.5,1.887a.894.894,0,1,0,1.726-.464l-.021-.078,2.068-.556a11.662,11.662,0,0,0,2.134,3.7l-1.518,1.523-.057-.057a.9.9,0,0,0-1.264,1.268l1.377,1.382a.9.9,0,0,0,1.263-1.269l-.057-.057,1.518-1.523a11.589,11.589,0,0,0,3.686,2.142l-.554,2.076-.077-.021a.9.9,0,0,0-.463,1.732l1.88.506a.9.9,0,0,0,.463-1.732l-.077-.021.554-2.075a11.584,11.584,0,0,0,4.261,0l.554,2.075-.077.021a.9.9,0,0,0,.463,1.732l1.88-.506a.9.9,0,0,0-.462-1.732l-.077.021-.554-2.076a11.589,11.589,0,0,0,3.686-2.142l1.518,1.523-.057.057a.9.9,0,0,0,1.263,1.269l1.377-1.382a.9.9,0,0,0-1.264-1.268l-.056.057-1.518-1.523a11.653,11.653,0,0,0,2.134-3.7l2.068.556-.021.078a.894.894,0,1,0,1.726.464l.5-1.887a.9.9,0,0,0-.631-1.1Zm-14.585,7.868a9.851,9.851,0,1,1,9.813-9.85A9.843,9.843,0,0,1,844.572,540.713Z" transform="translate(-829.324 -515.557)" fill="#0028ff"/>
        <path id="Path_25" data-name="Path 25" d="M855.234,527.99a9.562,9.562,0,0,1,3.749,3.557,9.743,9.743,0,0,1,1.354,5.1,9.93,9.93,0,0,1-1.354,5.151,9.594,9.594,0,0,1-3.749,3.6,11.647,11.647,0,0,1-10.715,0,9.62,9.62,0,0,1-3.736-3.6,9.935,9.935,0,0,1-1.354-5.151,9.747,9.747,0,0,1,1.354-5.1,9.587,9.587,0,0,1,3.736-3.557,11.757,11.757,0,0,1,10.715,0Zm-7.609,4.147a4.971,4.971,0,0,0-1.724,1.883,5.5,5.5,0,0,0-.644,2.651,5.581,5.581,0,0,0,.644,2.665,5.055,5.055,0,0,0,1.724,1.91,4.227,4.227,0,0,0,2.34.7,4.056,4.056,0,0,0,2.286-.7,4.843,4.843,0,0,0,1.655-1.9,5.869,5.869,0,0,0,.6-2.679,5.8,5.8,0,0,0-.6-2.651,4.776,4.776,0,0,0-1.642-1.883,4.087,4.087,0,0,0-2.3-.687A4.287,4.287,0,0,0,847.625,532.137Z" transform="translate(-834.635 -521.393)" fill="#151522"/>
      </g>
      <g id="Group_23" data-name="Group 23" transform="translate(0 2.256)">
        <path id="Path_26" data-name="Path 26" d="M786.278,527.526a6.543,6.543,0,0,0-3.212-.929,5.642,5.642,0,0,0-3.085.875,6.111,6.111,0,0,0-2.178,2.423,7.979,7.979,0,0,0,0,6.958,6.249,6.249,0,0,0,2.178,2.44,5.547,5.547,0,0,0,3.085.893,7.143,7.143,0,0,0,3.1-.8,10.153,10.153,0,0,0,2.958-2.186l4.354,4.663a15.465,15.465,0,0,1-4.99,3.606,13.846,13.846,0,0,1-12.667-.382,12.511,12.511,0,0,1-4.808-4.791,13.6,13.6,0,0,1-1.742-6.849,12.955,12.955,0,0,1,1.778-6.722,12.648,12.648,0,0,1,4.9-4.717,14.58,14.58,0,0,1,12.74-.474,13.98,13.98,0,0,1,4.791,3.315l-4.354,5.209A9.131,9.131,0,0,0,786.278,527.526Z" transform="translate(-769.274 -520.295)" fill="#151522"/>
        <path id="Path_27" data-name="Path 27" d="M903.386,521.288h8.057l5.807,17.67,5.807-17.67h7.731l-9.835,25.539h-7.839Z" transform="translate(-839.761 -520.815)" fill="#151522"/>
        <path id="Path_28" data-name="Path 28" d="M965.352,521.288H972.9v25.539h-7.549Z" transform="translate(-872.33 -520.815)" fill="#151522"/>
        <path id="Path_29" data-name="Path 29" d="M1008.6,522.874a11.537,11.537,0,0,1,4.81,4.48,12.936,12.936,0,0,1,1.706,6.686,12.805,12.805,0,0,1-1.743,6.7,11.65,11.65,0,0,1-4.9,4.5,16.042,16.042,0,0,1-7.294,1.585H990.292V521.288h11.142A15.541,15.541,0,0,1,1008.6,522.874Zm-2.776,16.157a7.284,7.284,0,0,0,1.6-4.918,7.121,7.121,0,0,0-1.706-4.954,5.682,5.682,0,0,0-4.428-1.9h-3.448v13.626h3.81A5.245,5.245,0,0,0,1005.826,539.031Z" transform="translate(-885.438 -520.815)" fill="#151522"/>
        <path id="Path_30" data-name="Path 30" d="M1048.049,546.535h9.908v4.59h-9.908Z" transform="translate(-915.794 -534.039)" fill="#151522"/>
        <path id="Path_31" data-name="Path 31" d="M1071.231,521.288h12.195v25.539h-7.549v-19.49h-4.646Z" transform="translate(-927.978 -520.815)" fill="#151522"/>
        <path id="Path_32" data-name="Path 32" d="M1114.013,541.183a5.2,5.2,0,0,0,4.048-1.493,6.045,6.045,0,0,0,1.324-4.3,6.711,6.711,0,0,1-5.552,2.442,8.327,8.327,0,0,1-4.211-1.039,7.115,7.115,0,0,1-2.813-2.952,9.348,9.348,0,0,1-1-4.389,9.091,9.091,0,0,1,1.18-4.7,7.813,7.813,0,0,1,3.339-3.078,11.057,11.057,0,0,1,4.99-1.075,10.771,10.771,0,0,1,5.842,1.549,10.031,10.031,0,0,1,3.793,4.408,15.962,15.962,0,0,1,1.325,6.758,16.407,16.407,0,0,1-1.452,7.1,10.86,10.86,0,0,1-4.136,4.718,11.641,11.641,0,0,1-6.244,1.657,17.418,17.418,0,0,1-4.409-.583,13.331,13.331,0,0,1-3.829-1.6l2.758-5.063A7.874,7.874,0,0,0,1114.013,541.183Zm-.708-13.989a3.156,3.156,0,0,0-.78,2.3,3.08,3.08,0,0,0,.763,2.24,2.946,2.946,0,0,0,2.213.783,2.867,2.867,0,0,0,3.157-3.1,2.786,2.786,0,0,0-3.121-3.023A2.974,2.974,0,0,0,1113.305,527.194Z" transform="translate(-946.153 -520.455)" fill="#151522"/>
      </g>
    </g>
    <g id="Group_84" data-name="Group 84" transform="translate(618.958 626.208)">
      <path id="Path_72" data-name="Path 72" d="M181.85,164.986h2.384V172.2a12.514,12.514,0,0,1-7.433,2.58,10.357,10.357,0,0,1-5.189-1.332,9.93,9.93,0,0,1-5.077-8.71,9.588,9.588,0,0,1,1.374-5.035,9.881,9.881,0,0,1,3.759-3.6,10.716,10.716,0,0,1,5.273-1.318,11.329,11.329,0,0,1,4,.729,10.746,10.746,0,0,1,3.38,1.992l-1.543,1.964a8.558,8.558,0,0,0-2.707-1.7,8.459,8.459,0,0,0-3.128-.6,7.663,7.663,0,0,0-3.871,1.01,7.5,7.5,0,0,0-2.791,2.749,7.6,7.6,0,0,0,.014,7.644,7.678,7.678,0,0,0,2.805,2.777,7.581,7.581,0,0,0,3.871,1.024,8.232,8.232,0,0,0,2.511-.407,9.362,9.362,0,0,0,2.37-1.136Z" transform="translate(-166.534 -154.776)"/>
      <path id="Path_73" data-name="Path 73" d="M240.967,171.119a5.532,5.532,0,0,0,4.138,1.528,5.448,5.448,0,0,0,4.1-1.528,5.84,5.84,0,0,0,1.487-4.25V155.256h2.693v11.613a8.12,8.12,0,0,1-2.2,6.031,8.238,8.238,0,0,1-6.073,2.188,8.324,8.324,0,0,1-6.115-2.188,8.089,8.089,0,0,1-2.216-6.031V155.256h2.693v11.613A5.807,5.807,0,0,0,240.967,171.119Z" transform="translate(-212.145 -155.088)"/>
      <path id="Path_74" data-name="Path 74" d="M305.333,155.256h2.693v19.635h-2.693Z" transform="translate(-256.666 -155.088)"/>
      <path id="Path_75" data-name="Path 75" d="M344.959,174.891l-2.076-4.769H332.533l-2.048,4.769h-2.833l8.724-19.635h2.805l8.7,19.635Zm-11.36-7.209h8.247l-4.151-9.537Z" transform="translate(-271.159 -155.088)"/>
    </g>
  </g>
</svg>
